<?xml version="1.0" standalone="no"?>
<!DOCTYPE svg PUBLIC "-//W3C//DTD SVG 20010904//EN"
 "http://www.w3.org/TR/2001/REC-SVG-20010904/DTD/svg10.dtd">
<svg version="1.0" xmlns="http://www.w3.org/2000/svg"
 width="700.000000pt" height="700.000000pt" viewBox="0 0 700.000000 700.000000"
 preserveAspectRatio="xMidYMid meet">
<metadata>
Created by potrace 1.14, written by Peter Selinger 2001-2017
</metadata>
<g transform="translate(0.000000,700.000000) scale(0.100000,-0.100000)"
fill="#000000" stroke="none">
<path d="M1260 6430 c-4 -3 -7 -145 -7 -316 0 -171 -3 -316 -7 -322 -4 -7 -97
-10 -279 -10 -149 0 -282 -1 -294 -1 l-23 -1 0 -325 0 -325 -268 0 -268 0 0
-650 c0 -646 1 -650 21 -651 11 0 131 -1 267 -1 l248 1 2 -327 3 -327 255 0
255 0 1 -310 c1 -171 2 -317 3 -326 1 -13 32 -15 252 -15 138 1 253 -3 256 -7
3 -5 5 -152 5 -327 l0 -318 293 0 c161 1 296 -2 301 -5 5 -3 9 -150 8 -326
l-1 -321 343 0 344 0 0 -325 0 -325 525 0 525 0 0 63 c1 34 1 180 0 324 l0
263 345 0 344 0 0 321 c0 177 2 323 5 326 2 3 137 6 298 6 l293 2 5 325 5 325
245 -1 c135 0 250 1 255 3 7 2 10 113 10 316 -1 171 0 317 2 322 2 7 93 10
258 10 l255 0 0 326 0 327 233 0 c127 0 248 1 267 1 l36 1 0 650 0 650 -268 0
-268 0 0 325 0 325 -27 1 c-16 0 -151 1 -300 1 l-273 1 0 76 c-1 42 -2 188 -3
326 l-2 249 -665 1 c-366 0 -674 -1 -685 -3 -20 -3 -20 -10 -20 -310 1 -169
-1 -314 -3 -324 -3 -14 -32 -16 -290 -16 -158 0 -292 -1 -297 -1 -7 -1 -11
-109 -11 -323 l1 -323 -268 -3 -267 -2 -1 32 c0 18 -1 165 0 326 l0 292 -22 1
c-12 0 -148 1 -302 1 l-280 1 0 323 c0 178 -2 324 -5 325 -20 4 -1354 3 -1360
-1z"/>
</g>
</svg>
